<svg width="501px" height="501px" viewBox="0 0 501 501" version="1.1" xmlns="http://www.w3.org/2000/svg" xmlns:xlink="http://www.w3.org/1999/xlink">
    <g id="Page-1" stroke="none" stroke-width="1" fill="none" fill-rule="evenodd">
        <g id="lemon-top" transform="translate(-0.003297, -0.003320)" fill-rule="nonzero">
            <path d="M251.286803,0.00660495934 C113.218911,-0.697194785 0.718554964,110.652178 0.00662456919,248.720425 C-0.698231214,386.788673 110.653273,499.289382 248.721521,499.999915 C386.788701,500.707234 499.289412,389.354309 499.999946,251.286062 C500.707265,113.217815 389.354339,0.717103931 251.286803,0.00660495934 Z" id="path14" fill="#000000" transform="translate(250.003308, 250.003293) scale(-1, 1) rotate(-180.000000) translate(-250.003308, -250.003293) "></path>
            <path d="M480.337535,251.183175 C480.981707,123.978021 378.391748,20.3255608 251.185883,19.6690809 C123.980018,19.0214211 20.3304007,121.611381 19.6714535,248.820088 C19.0248396,376.025241 121.616576,479.674149 248.822085,480.334116 C376.02866,480.978288 479.677568,378.388329 480.337535,251.183175" id="path16" fill="#FFFFFF" transform="translate(250.004494, 250.001598) scale(-1, 1) rotate(-180.000000) translate(-250.004494, -250.001598) "></path>
            <path d="M253.739785,199.157329 C253.655931,215.624314 268.425757,228.225076 284.66532,225.495977 C297.140642,223.399404 309.393159,220.165706 321.322307,215.80199 C332.387951,211.758091 343.041386,206.800938 353.204437,200.969621 C367.54642,192.746789 371.067955,173.621775 360.503356,160.9073 L265.260287,46.26382 C261.633926,41.8965506 254.53436,44.4408671 254.505221,50.1158293 L253.739785,199.157329" id="path18" fill="#000000" transform="translate(310.185129, 134.962480) scale(-1, 1) rotate(-180.000000) translate(-310.185129, -134.962480) "></path>
            <path d="M138.341902,160.326785 C127.677095,172.948868 131.031612,192.102311 145.298262,200.442409 C155.360038,206.323475 165.909,211.344591 176.876922,215.470221 C188.704084,219.919221 200.857814,223.255971 213.246787,225.46981 C229.452944,228.358817 244.344302,215.907303 244.428875,199.447425 L245.193059,50.4947631 C245.22202,44.8162472 238.136312,42.2008607 234.470151,46.543255 L138.341902,160.326785" id="path20" fill="#000000" transform="translate(188.633720, 135.130626) scale(-1, 1) rotate(-180.000000) translate(-188.633720, -135.130626) "></path>
            <path d="M408.234162,230.294898 C424.143245,211.59986 436.626741,190.243238 445.073444,167.273321 C450.751961,151.833301 441.029546,135.010964 424.839733,132.075761 L278.182643,105.506134 C272.598651,104.496937 268.796389,111.010528 272.422752,115.374244 L367.63526,229.982189 C378.150108,242.639807 397.570066,242.828144 408.234162,230.294898" id="path22" fill="#000000" transform="translate(358.851782, 172.493760) scale(-1, 1) rotate(-180.000000) translate(-358.851782, -172.493760) "></path>
            <path d="M90.6597802,230.3525 C101.219404,242.97103 120.641136,242.942602 131.260103,230.373822 L227.416425,116.55831 C231.078677,112.223022 227.33043,105.677449 221.738265,106.644005 L74.8661857,131.99833 C58.6522103,134.798499 48.7915633,151.539105 54.3428635,167.028875 C62.5987435,190.066308 74.9052742,211.525981 90.6597802,230.3525 Z" id="path24" fill="#000000" transform="translate(140.828939, 173.178185) scale(-1, 1) rotate(-180.000000) translate(-140.828939, -173.178185) "></path>
            <path d="M273.290163,431.784608 L402.665803,357.857295 C416.958039,349.691319 420.504447,330.587625 410.000256,317.919347 C394.347026,299.039525 375.477864,283.055818 354.320241,270.746445 C340.091968,262.47031 321.834013,269.129595 316.13773,284.57317 L264.57055,424.403959 C262.606878,429.727123 268.36286,434.598992 273.290163,431.784608" id="path26" fill="#000000" transform="translate(340.125600, 349.886144) scale(-1, 1) rotate(-180.000000) translate(-340.125600, -349.886144) "></path>
            <path d="M93.3934988,226.764237 C79.1300476,218.459674 60.8209201,225.033676 55.1058031,240.519891 C46.7603745,263.134457 42.3678754,287.184642 42.2427917,311.522663 C42.2405613,311.750087 42.2405613,311.977511 42.2405613,312.201382 C42.2093888,328.671921 57.0904407,341.169634 73.3221838,338.365911 L220.154108,313.018691 C225.746273,312.052134 227.083106,304.628844 222.179611,301.771818 L93.3934988,226.764237" id="path28" fill="#000000" transform="translate(133.721639, 280.953115) scale(-1, 1) rotate(-180.000000) translate(-133.721639, -280.953115) "></path>
            <path d="M279.84249,310.359033 L426.460135,336.921554 C442.649948,339.853204 457.645777,327.5154 457.755938,311.066184 C457.755938,310.959578 457.759491,310.856526 457.759491,310.74992 C457.883865,286.273313 453.690716,262.049006 445.489205,239.24255 C439.899528,223.703032 421.648678,216.965569 407.310247,225.156419 L277.910088,299.097946 C272.983139,301.915882 274.258497,309.346281 279.84249,310.359033" id="path30" fill="#000000" transform="translate(366.302956, 279.500690) scale(-1, 1) rotate(-180.000000) translate(-366.302956, -279.500690) "></path>
            <path d="M251.066485,274.618219 C238.672893,274.554256 226.406161,275.57056 214.35193,277.656474 C198.133335,280.460197 188.429398,297.303855 193.996333,312.793625 L244.409331,453.054388 C246.328939,458.39532 253.870208,458.423749 255.83388,453.100586 L307.40319,313.262689 C313.09592,297.829774 303.547628,280.900832 287.362791,277.962077 C275.453187,275.801539 263.326109,274.682182 251.066485,274.618219" id="path32" fill="#000000" transform="translate(250.737770, 365.845975) scale(-1, 1) rotate(-180.000000) translate(-250.737770, -365.845975) "></path>
            <path d="M147.168476,270.804593 C125.908511,282.939844 106.908225,298.767198 91.1004162,317.511986 C80.4899776,330.09498 83.8803857,349.230655 98.1029716,357.513897 L226.865631,432.507264 C231.76948,435.36429 237.565618,430.538616 235.646365,425.197684 L185.235499,284.944026 C179.668208,269.454256 161.463199,262.645724 147.168476,270.804593" id="path34" fill="#000000" transform="translate(160.454050, 350.343416) scale(-1, 1) rotate(-180.000000) translate(-160.454050, -350.343416) "></path>
        </g>
    </g>
</svg>