<svg width="1877px" height="1877px" viewBox="0 0 1877 1877" version="1.1" xmlns="http://www.w3.org/2000/svg" xmlns:xlink="http://www.w3.org/1999/xlink">
    <g id="Page-1" stroke="none" stroke-width="1" fill="none" fill-rule="evenodd">
        <g id="Group" transform="translate(0.280721, 0.280710)" fill-rule="nonzero">
            <path d="M1876.05192,942.839211 C1878.70589,424.785891 1460.89257,2.66590153 942.841916,1.13686838e-13 C424.789929,-2.640765 2.67127245,415.159225 1.13686838e-13,933.212545 C-2.64472742,1451.26587 415.163262,1873.38585 933.216583,1876.05188 C1451.2659,1878.70585 1873.38589,1460.89253 1876.05192,942.839211" id="path14" fill="#F9D817" transform="translate(938.025960, 938.025941) scale(-1, 1) rotate(-180.000000) translate(-938.025960, -938.025941) "></path>
            <path d="M1802.2641,942.452797 C1804.69256,465.159475 1419.75924,76.239485 942.463249,73.7878229 C465.167261,71.3461518 76.2579373,456.279475 73.7969799,933.58613 C71.3592707,1410.87945 456.299261,1799.78611 933.593916,1802.25098 C1410.89257,1804.67944 1799.79923,1419.74612 1802.2641,942.452797" id="path16" fill="#FFFFFF" transform="translate(938.030538, 938.019400) scale(-1, 1) rotate(-180.000000) translate(-938.030538, -938.019400) "></path>
            <path d="M952.047226,747.243933 C951.731249,809.030598 1007.14991,856.310597 1068.08325,846.070597 C1114.89258,838.203931 1160.86591,826.070598 1205.62591,809.697265 C1247.14591,794.523932 1287.11924,775.923932 1325.25257,754.043933 C1379.0659,723.1906 1392.27924,651.430602 1352.63924,603.723937 L995.272581,173.563948 C981.665915,157.177281 955.027249,166.723948 954.917915,188.01728 L952.047226,747.243933" id="path18" fill="#F9D817" transform="translate(1163.838175, 506.374977) scale(-1, 1) rotate(-180.000000) translate(-1163.838175, -506.374977) "></path>
            <path d="M519.05526,601.545754 C479.039261,648.905753 491.625927,720.772418 545.156592,752.06575 C582.909925,774.132416 622.491257,792.972416 663.644589,808.452416 C708.021921,825.145748 753.624587,837.665748 800.109919,845.972415 C860.917918,856.812414 916.792583,810.092416 917.109916,748.332417 L919.976919,189.439098 C920.085916,168.132432 893.49925,158.319099 879.743251,174.612431 L519.05526,601.545754" id="path20" fill="#F9D817" transform="translate(707.757737, 507.005886) scale(-1, 1) rotate(-180.000000) translate(-707.757737, -507.005886) "></path>
            <path d="M1531.73257,864.076888 C1591.4259,793.930224 1638.2659,713.796892 1669.95923,627.610228 C1691.2659,569.676896 1654.7859,506.556897 1594.03923,495.543564 L1043.75925,395.850233 C1022.80725,392.063567 1008.54058,416.503566 1022.14725,432.876899 L1379.39924,862.903555 C1418.85257,910.396887 1491.71924,911.103554 1531.73257,864.076888" id="path22" fill="#F9D817" transform="translate(1346.442279, 647.198119) scale(-1, 1) rotate(-180.000000) translate(-1346.442279, -647.198119) "></path>
            <path d="M340.144597,864.293019 C379.76593,911.639685 452.639261,911.533018 492.48326,864.373019 L853.276585,437.319696 C867.017918,421.05303 852.953918,396.493031 831.971252,400.119697 L280.884599,495.253028 C220.047267,505.759695 183.048601,568.573026 203.877934,626.693025 C234.855267,713.133023 281.031265,793.653021 340.144597,864.293019 Z" id="path24" fill="#F9D817" transform="translate(528.387005, 649.766185) scale(-1, 1) rotate(-180.000000) translate(-528.387005, -649.766185) "></path>
            <path d="M1025.40191,1620.0973 L1510.83923,1342.71064 C1564.4659,1312.07064 1577.77257,1240.39064 1538.35923,1192.85731 C1479.6259,1122.01731 1408.8259,1062.04398 1329.43924,1015.85732 C1276.05257,984.803985 1207.54591,1009.79065 1186.17258,1067.73732 L992.684581,1592.40397 C985.316581,1612.3773 1006.91391,1630.6573 1025.40191,1620.0973" id="path26" fill="#F9D817" transform="translate(1276.178761, 1312.801652) scale(-1, 1) rotate(-180.000000) translate(-1276.178761, -1312.801652) "></path>
            <path d="M350.40193,850.829309 C296.883265,819.66931 228.1846,844.335976 206.740601,902.442641 C175.427268,987.295972 158.945935,1077.53597 158.476602,1168.85597 C158.468417,1169.7093 158.468417,1170.56263 158.468417,1171.40263 C158.351269,1233.20263 214.187267,1280.09597 275.091266,1269.57597 L826.027252,1174.4693 C847.009918,1170.84263 852.025918,1142.9893 833.627252,1132.2693 L350.40193,850.829309" id="path28" fill="#F9D817" transform="translate(501.719413, 1054.154319) scale(-1, 1) rotate(-180.000000) translate(-501.719413, -1054.154319) "></path>
            <path d="M1049.98725,1164.48985 L1600.11923,1264.15652 C1660.8659,1275.15652 1717.13256,1228.86318 1717.5459,1167.14319 C1717.5459,1166.74319 1717.55923,1166.35652 1717.55923,1165.95652 C1718.0259,1074.11652 1702.29256,983.223191 1671.51923,897.649859 C1650.5459,839.343194 1582.0659,814.063195 1528.2659,844.796527 L1042.73658,1122.23652 C1024.24991,1132.80985 1029.03525,1160.68985 1049.98725,1164.48985" id="path30" fill="#F9D817" transform="translate(1374.400230, 1048.704595) scale(-1, 1) rotate(-180.000000) translate(-1374.400230, -1048.704595) "></path>
            <path d="M942.015249,1030.38481 C895.512583,1030.14481 849.485918,1033.95814 804.256586,1041.78481 C743.401921,1052.30481 706.991255,1115.50481 727.879254,1173.62481 L917.036583,1699.90479 C924.239249,1719.94479 952.535249,1720.05146 959.903249,1700.07813 L1153.39924,1175.38481 C1174.75924,1117.47814 1138.93258,1053.95814 1078.20458,1042.93148 C1033.51791,1034.82481 988.015248,1030.62481 942.015249,1030.38481" id="path32" fill="#F9D817" transform="translate(940.781862, 1372.685397) scale(-1, 1) rotate(-180.000000) translate(-940.781862, -1372.685397) "></path>
            <path d="M552.173925,1016.0755 C472.403261,1061.60883 401.111262,1120.9955 341.797931,1191.32883 C301.985932,1238.54216 314.707265,1310.34216 368.072597,1341.42216 L851.209918,1622.80882 C869.609917,1633.52882 891.357917,1615.42215 884.156584,1595.38215 L695.007255,1069.12883 C674.117922,1011.00883 605.809924,985.462167 552.173925,1016.0755" id="path34" fill="#F9D817" transform="translate(602.023443, 1314.517410) scale(-1, 1) rotate(-180.000000) translate(-602.023443, -1314.517410) "></path>
        </g>
    </g>
</svg>