<svg width="1831px" height="1827px" viewBox="0 0 1831 1827" version="1.1" xmlns="http://www.w3.org/2000/svg" xmlns:xlink="http://www.w3.org/1999/xlink">
    <g id="Page-1" stroke="none" stroke-width="1" fill="none" fill-rule="evenodd">
        <g id="Group-2" transform="translate(0.934075, 0.438083)" fill-rule="nonzero">
            <path d="M1825.86587,962.657577 C1804.77254,1188.96424 1725.25254,1403.5909 1594.90588,1568.1509 C1583.65254,1583.13756 1571.65254,1597.71089 1558.89255,1611.83089 C1549.05255,1622.69756 1538.89255,1633.13756 1528.45255,1643.17756 L1528.43921,1643.17756 L1528.43921,1643.17756 C1240.78589,1919.40422 726.069899,1879.41755 355.337909,1544.0709 C-0.535415765,1222.16424 -100.60608,742.950916 107.520582,429.764257 L107.520582,429.764257 L107.520582,429.764257 C124.087248,404.830925 142.589914,380.950925 163.087247,358.284259 C179.293913,340.377593 196.396579,323.617593 214.293912,307.990927 C443.757906,86.564266 790.724564,-39.3022642 1097.83922,11.0309346 C1323.87922,55.5642668 1514.30588,178.244264 1646.09254,345.630926 C1783.46587,520.110922 1846.4792,741.537583 1825.86587,962.657577" id="path36" fill="#F9D817" transform="translate(914.847086, 912.963078) scale(-1, 1) rotate(-180.000000) translate(-914.847086, -912.963078) "></path>
            <path d="M1326.86588,324.098326 C970.68856,6.33833354 474.232572,-21.6083324 217.992579,261.67166 C-38.2474148,544.951653 41.0552499,1034.07164 395.119241,1354.16497 C749.183232,1674.24496 1245.63922,1702.19162 1503.98588,1416.59163 C1762.33254,1130.97831 1683.02588,641.858318 1326.86588,324.098326" id="path38" fill="#FFFFFF" transform="translate(861.744942, 839.996779) scale(-1, 1) rotate(-180.000000) translate(-861.744942, -839.996779) "></path>
            <path d="M1370.73255,779.905136 C1416.70588,821.185135 1481.78588,819.291801 1506.87921,775.825136 C1526.14588,742.451803 1541.77255,706.731804 1553.58588,668.931805 C1564.53255,633.878473 1572.09254,597.491807 1576.21254,560.025141 C1582.02588,507.198476 1535.45255,451.611811 1478.50588,443.758477 L965.447227,372.451813 C945.927227,369.718479 938.792561,392.038479 954.635227,406.265145 L1370.73255,779.905136" id="path40" fill="#F9D817" transform="translate(1261.325319, 590.953530) scale(-1, 1) rotate(-180.000000) translate(-1261.325319, -590.953530) "></path>
            <path d="M1028.64589,674.95161 C1042.48989,730.564942 1102.82589,770.871607 1154.90589,759.538274 C1191.63922,751.538274 1226.95922,740.298275 1260.59922,725.844942 C1296.89255,710.271609 1330.73255,691.178276 1361.90588,668.738276 C1402.66588,639.378277 1397.79922,574.684945 1351.83922,533.41828 L936.048561,159.951622 C920.189895,145.69829 898.632562,155.124956 903.424562,174.204955 L1028.64589,674.95161" id="path42" fill="#F9D817" transform="translate(1146.188932, 457.263435) scale(-1, 1) rotate(-180.000000) translate(-1146.188932, -457.263435) "></path>
            <path d="M1558.66588,1063.54689 C1538.18588,981.160221 1503.31921,899.893556 1455.79921,823.733558 C1423.82588,772.53356 1357.03922,752.560227 1316.26588,781.693559 L947.075227,1045.44022 C933.024561,1055.48022 943.640561,1080.28022 963.16056,1083.01355 L1476.05255,1154.29355 C1532.74588,1162.10688 1572.38588,1118.78688 1558.66588,1063.54689" id="path44" fill="#F9D817" transform="translate(1251.020734, 961.714399) scale(-1, 1) rotate(-180.000000) translate(-1251.020734, -961.714399) "></path>
            <path d="M665.576568,681.908397 C746.571232,720.975063 831.320563,746.948396 915.671228,758.548395 C972.221893,766.321728 1011.25389,722.455063 997.469893,667.081731 L872.220562,166.18841 C867.435229,147.121744 841.573897,139.215077 833.045897,154.215077 L608.913902,548.028401 C584.153903,591.521733 611.124569,655.628398 665.576568,681.908397" id="path46" fill="#F9D817" transform="translate(799.956859, 452.908496) scale(-1, 1) rotate(-180.000000) translate(-799.956859, -452.908496) "></path>
            <path d="M857.347229,1522.23773 L909.536561,1047.33107 C915.257895,994.917741 868.724563,939.411076 812.099231,931.437743 C727.751233,919.557743 645.101901,922.06441 568.20057,938.837743 C516.503238,950.104409 498.628572,1007.63774 530.533904,1058.90441 L819.153897,1523.42439 C830.133897,1541.11773 855.345896,1540.33106 857.347229,1522.23773" id="path48" fill="#F9D817" transform="translate(712.320175, 1230.166486) scale(-1, 1) rotate(-180.000000) translate(-712.320175, -1230.166486) "></path>
            <path d="M308.39391,445.614109 C256.565911,456.854108 238.237912,514.414107 270.057911,566.014106 C316.51391,641.374104 374.915242,711.467435 442.677906,772.6941 C443.30724,773.267434 443.937906,773.827434 444.568573,774.400767 C490.536572,815.707433 555.35657,813.507433 580.139236,769.9741 L804.161897,376.320777 C812.688564,361.334111 794.583231,339.787445 776.736565,343.680778 L308.39391,445.614109" id="path50" fill="#F9D817" transform="translate(530.336048, 573.634679) scale(-1, 1) rotate(-180.000000) translate(-530.336048, -573.634679) "></path>
            <path d="M924.727228,1461.46608 L1293.77255,1197.83942 C1334.53255,1168.71942 1330.01255,1104.27942 1284.01255,1063.11942 C1283.71922,1062.85276 1283.42589,1062.58609 1283.13255,1062.31942 C1214.62589,1001.15942 1138.14589,950.319425 1057.62589,912.012759 C1002.77389,885.906093 947.252561,910.119426 941.508561,962.706091 L889.284562,1437.71941 C887.283229,1455.82608 910.677895,1471.50608 924.727228,1461.46608" id="path52" fill="#F9D817" transform="translate(1105.405847, 1183.020662) scale(-1, 1) rotate(-180.000000) translate(-1105.405847, -1183.020662) "></path>
            <path d="M282.91391,983.366899 C257.937911,1010.98023 236.244578,1041.0069 217.961912,1073.22023 C193.361913,1116.5669 221.100579,1180.39356 275.612577,1206.60689 L769.524565,1443.64689 C788.339231,1452.66022 803.565897,1435.78022 792.588564,1418.08689 L503.993905,953.500233 C472.111239,902.260234 405.539241,881.446901 364.915242,910.393567 C335.023243,931.6869 307.619243,956.060233 282.91391,983.366899" id="path54" fill="#F9D817" transform="translate(502.602986, 1171.697732) scale(-1, 1) rotate(-180.000000) translate(-502.602986, -1171.697732) "></path>
            <path d="M151.117914,791.200952 C142.504581,869.20095 148.728581,951.400948 169.485913,1033.76095 C183.405913,1089.04094 243.695245,1129.32094 295.371244,1118.10761 L763.605898,1016.24095 C781.452565,1012.33428 779.571231,987.267613 760.757899,978.25428 L266.905911,741.18762 C212.397912,714.960954 156.899247,738.760953 151.117914,791.200952" id="path56" fill="#F9D817" transform="translate(461.673403, 925.221429) scale(-1, 1) rotate(-180.000000) translate(-461.673403, -925.221429) "></path>
        </g>
    </g>
</svg>