<svg width="210px" height="129px" viewBox="0 0 210 129" version="1.1" xmlns="http://www.w3.org/2000/svg" xmlns:xlink="http://www.w3.org/1999/xlink">
    <g id="Page-1" stroke="none" stroke-width="1" fill="none" fill-rule="evenodd">
        <g id="cloud_1340104" fill="#000000" fill-rule="nonzero">
            <path d="M44,46.0578778 L44,49.9421222 C44,51.079314 44.8958336,52 46,52 C47.1052085,52 48,51.079314 48,49.9421222 L48,46.0578778 C48,44.9206858 47.1052085,44 46,44 C44.8958336,44 44,44.9206858 44,46.0578778 Z" id="Path"></path>
            <path d="M85,46.0578778 L85,49.9421222 C85,51.079314 85.8958333,52 87,52 C88.1052083,52 89,51.079314 89,49.9421222 L89,46.0578778 C89,44.9206858 88.1052083,44 87,44 C85.8958333,44 85,44.9206858 85,46.0578778 Z" id="Path"></path>
            <path d="M70.5674741,48.6533824 C69.6994903,49.6219655 68.4000645,50.1774323 66.9996631,50.1774323 C65.6002815,50.1774323 64.2998361,49.6219655 63.4328722,48.6533824 C62.7209418,47.8590052 61.4837335,47.7773773 60.6698077,48.4722088 C59.8548616,49.1670402 59.7722452,50.3745336 60.4841753,51.1689108 C62.0946881,52.9687031 64.4691489,54 66.9996631,54 C69.5301775,54 71.9046383,52.9687031 73.5161707,51.1689108 C74.2281011,50.3745336 74.1444645,49.1670402 73.3305386,48.4722088 C72.5155926,47.7773773 71.2783844,47.8590052 70.5674741,48.6533824 L70.5674741,48.6533824 Z" id="Path"></path>
            <path d="M89.0854165,101.032685 C89.0854165,97.7065504 86.3552083,95 83,95 C79.6447917,95 76.9145835,97.7065504 76.9145835,101.032685 L76.9145835,104.923674 C75.6895835,106.350783 75,108.181655 75,110.069322 C75,114.442554 78.5885416,118 83,118 C87.4114584,118 91,114.442554 91,110.069322 C91,108.181655 90.3114584,106.350783 89.0854165,104.923674 L89.0854165,101.032685 Z M83,114.034661 C80.7947917,114.034661 79,112.256454 79,110.069322 C79,108.957168 79.4531251,107.92556 80.2770832,107.166569 C80.6843749,106.790688 80.9156251,106.265074 80.9156251,105.714677 L80.9156251,101.032685 C80.9156251,99.8926504 81.85,98.966372 83,98.966372 C84.15,98.966372 85.0854165,99.8926504 85.0854165,101.032685 L85.0854165,105.714677 C85.0854165,106.265074 85.3166667,106.790688 85.7229168,107.166569 C86.5468749,107.92556 87,108.957168 87,110.069322 C87,112.256454 85.2052083,114.034661 83,114.034661 Z" id="Shape"></path>
            <path d="M114.305927,39.6248875 C114.401758,38.5375841 114.450692,37.4431071 114.450692,36.3558038 C114.450692,27.1777741 111.052807,18.3994128 104.885029,11.6378408 C104.154071,10.8364539 102.916437,10.7831648 102.119214,11.5179402 C101.32301,12.2516905 101.268978,13.4968118 101.999936,14.2971739 C107.504041,20.3311443 110.535937,28.1656727 110.535937,36.3568285 C110.535937,37.7761642 110.443165,39.2077974 110.260681,40.6138112 C110.145481,41.5084538 110.648079,42.3672286 111.482003,42.6982363 C116.906589,44.8543969 121.535991,48.5518434 124.870669,53.3919322 C128.281807,58.3437231 130.085245,64.1573634 130.085245,70.204656 C130.085245,82.6271747 122.316903,93.6795474 110.902945,97.9324306 L110.902945,93.338292 C110.902945,92.5789215 110.815271,91.8144275 110.642981,91.0755531 C110.639923,91.0653051 110.637884,91.0550573 110.634825,91.0448092 C109.871244,87.8730805 107.570306,85.1922268 104.535351,84.0157668 L104.535351,77.4919461 C104.535351,65.832897 95.0981412,56.3474299 83.4996599,56.3474299 C71.9001593,56.3474299 62.4639685,65.832897 62.4639685,77.4919461 L62.4639685,84.0157668 C59.1578355,85.2977804 56.7243666,88.4080216 56.2013798,91.9240802 C56.1320561,92.391385 56.0963746,92.8648384 56.0963746,93.338292 L56.0963746,99.7719308 L33.7047913,99.7719308 C26.5338571,99.7719308 19.6259456,97.146416 14.2523328,92.3801122 C13.4418561,91.6617336 12.2052422,91.7385931 11.4895759,92.5543266 C10.7749293,93.3680109 10.8513894,94.6121072 11.6618661,95.3315108 C17.7511451,100.73216 25.5796356,103.707129 33.7047913,103.707129 L56.0963746,103.707129 L56.0963746,119.01341 C56.0963746,124.519613 60.5534864,129 66.031085,129 L100.968235,129 C106.445834,129 110.902945,124.519613 110.902945,119.01341 L110.902945,102.094108 C124.575023,97.6670099 134,84.7669387 134,70.204656 C134,63.3529024 131.955968,56.76452 128.089128,51.1517386 C124.599491,46.0861957 119.855909,42.1253779 114.305927,39.6248875 L114.305927,39.6248875 Z M66.3787236,77.4919461 C66.3787236,68.0023798 74.0593913,60.282628 83.4996599,60.282628 C92.9399286,60.282628 100.620596,68.0023798 100.620596,77.4919461 L100.620596,83.3517021 L96.6273423,83.3517021 L96.6273423,77.4919461 C96.6273423,70.2159288 90.7378789,64.296735 83.4996599,64.296735 C76.261441,64.296735 70.3729969,70.2159288 70.3729969,77.4919461 L70.3729969,83.3517021 L66.3787236,83.3517021 L66.3787236,77.4919461 Z M92.7115679,77.4919461 L92.7115679,83.3517021 L74.287752,83.3517021 L74.287752,77.4919461 C74.287752,72.3864363 78.4196535,68.2319331 83.4996599,68.2319331 C88.5796663,68.2319331 92.7115679,72.3864363 92.7115679,77.4919461 Z M106.98819,119.01341 C106.98819,122.35013 104.287621,125.064802 100.968235,125.064802 L66.031085,125.064802 C62.7116989,125.064802 60.0111297,122.35013 60.0111297,119.01341 L60.0111297,93.338292 C60.0111297,90.0958527 62.8024314,87.2869002 66.031085,87.2869002 L100.968235,87.2869002 C104.206064,87.2869002 106.98819,90.0886791 106.98819,93.338292 L106.98819,119.01341 Z" id="Shape"></path>
            <path d="M3.91114398,70.3237871 C3.91114398,64.2909764 5.70986293,58.4894099 9.11378029,53.5483578 C12.4402899,48.718835 17.05931,45.0250685 22.4727814,42.8702007 C23.1633429,42.5949589 23.6389949,41.9503405 23.7001065,41.2064712 C24.0464057,37.032822 25.9286438,33.1630647 29.0005214,30.3083254 C32.0886955,27.4372151 36.1098404,25.856365 40.3204315,25.856365 C41.8268329,25.856365 43.3311975,26.0630521 44.7917652,26.4702874 C45.7736253,26.7434827 46.7982637,26.2155094 47.1496555,25.2567673 C51.8297875,12.49946 64.0694273,3.92910333 77.6076892,3.92910333 C84.1904298,3.92910333 90.5287236,5.89979435 95.938121,9.62630316 C96.8283138,10.2402256 98.0464722,10.012051 98.65657,9.11777084 C99.2676862,8.22349042 99.0415731,7.00076158 98.1503618,6.38683919 C92.0870702,2.20807435 84.9838625,0 77.6076892,0 C70.022718,0 62.7545088,2.32369633 56.588346,6.71938068 C51.0322807,10.6802034 46.7473372,16.0346298 44.1164817,22.2823133 C42.8636936,22.0469765 41.5925718,21.9272617 40.3204315,21.9272617 C35.1218693,21.9272617 30.1575682,23.8795346 26.3442028,27.4239133 C22.8506551,30.6705397 20.6027657,34.9843678 19.9376676,39.675758 C14.2756755,42.1662364 9.4386905,46.1710569 5.89727191,51.3136803 C2.03909108,56.9136757 0,63.4877613 0,70.3237871 C0,77.0748872 1.99427615,83.5824646 5.76690045,89.1425549 C6.14579226,89.700201 6.75996415,90 7.38432119,90 C7.76423198,90 8.14719816,89.889494 8.48433043,89.6592729 C9.37656041,89.0484202 9.60776586,87.8256913 8.9986868,86.9293649 C5.67014031,82.0241248 3.91114398,76.281904 3.91114398,70.3237871 L3.91114398,70.3237871 Z" id="Path"></path>
        </g>
        <g id="lemon-side" transform="translate(110.000000, 15.000000)" fill-rule="nonzero">
            <path d="M99.7907684,52.6130319 C98.6379347,64.9815833 94.2918532,76.7117764 87.1678944,85.7056292 C86.552855,86.5247093 85.8970076,87.3211992 85.1996239,88.0929129 C84.6618291,88.6868192 84.106545,89.2574064 83.5359579,89.806132 L83.5352288,89.806132 L83.5352288,89.806132 C67.8138408,104.903008 39.6825826,102.717579 19.4206177,84.3895623 C-0.0292625886,66.7960942 -5.49851892,40.6051967 5.87642371,23.488311 L5.87642371,23.488311 L5.87642371,23.488311 C6.78185732,22.1256061 7.79310096,20.82047 8.91336102,19.5816473 C9.79911922,18.6029774 10.7338473,17.6869773 11.7120072,16.8329184 C24.2531191,4.73107842 43.2162149,-2.14802369 60.0012417,0.602884065 C72.3552188,3.03680625 82.7627866,9.74175177 89.9654471,18.8900928 C97.4734412,28.4261125 100.917368,40.5279525 99.7907684,52.6130319" id="path36" fill="#000000" transform="translate(50.000000, 49.897032) scale(-1, 1) rotate(-180.000000) translate(-50.000000, -49.897032) "></path>
            <path d="M72.5184516,17.7132513 C53.0519568,0.346414884 25.9186797,-1.18098059 11.9141539,14.3013878 C-2.09037202,29.7837563 2.24383126,56.516092 21.5948243,74.0104545 C40.9458173,91.5040879 68.0790944,93.031483 82.1987579,77.4223176 C96.3184214,61.8124236 91.9839998,35.0800876 72.5184516,17.7132513" id="path38" fill="#FFFFFF" transform="translate(47.097759, 45.909136) scale(-1, 1) rotate(-180.000000) translate(-47.097759, -45.909136) "></path>
            <path d="M74.9159381,42.6248905 C77.4285618,44.8810052 80.9854404,44.777527 82.3568898,42.4019024 C83.4098893,40.5779182 84.2639484,38.6256794 84.9095934,36.5597604 C85.5078721,34.6439576 85.9210554,32.6552829 86.1462296,30.6075818 C86.4639516,27.7203963 83.9185355,24.6823659 80.8061754,24.2531503 L52.7654973,20.35596 C51.6986523,20.2065725 51.3087147,21.4264485 52.1745789,22.2039919 L74.9159381,42.6248905" id="path40" fill="#000000" transform="translate(68.936401, 32.297940) scale(-1, 1) rotate(-180.000000) translate(-68.936401, -32.297940) "></path>
            <path d="M56.2195534,36.8887664 C56.9761826,39.9282543 60.2737828,42.1311724 63.1201602,41.5117611 C65.1277815,41.0745296 67.0581587,40.4602193 68.8967174,39.6702877 C70.8802909,38.8191436 72.7297804,37.7756177 74.4335257,36.5491832 C76.6612204,34.9445435 76.3952383,31.4087979 73.8833431,29.1534119 L51.1587443,8.74198667 C50.2920057,7.96298588 49.1138124,8.47819034 49.3757141,9.52098751 L56.2195534,36.8887664" id="path42" fill="#000000" transform="translate(62.643744, 24.991249) scale(-1, 1) rotate(-180.000000) translate(-62.643744, -24.991249) "></path>
            <path d="M85.1872355,58.1270306 C84.0679227,53.6242744 82.1623218,49.1827307 79.5651664,45.0202866 C77.8176979,42.2220048 74.1675436,41.1303834 71.9391198,42.7226349 L51.7613951,57.1374297 C50.9934708,57.6861553 51.573677,59.0415731 52.6405219,59.1909603 L80.6720913,63.0866934 C83.7706053,63.5137227 85.9370876,61.1461139 85.1872355,58.1270306" id="path44" fill="#000000" transform="translate(68.373215, 52.561483) scale(-1, 1) rotate(-180.000000) translate(-68.373215, -52.561483) "></path>
            <path d="M36.3763835,37.2689823 C40.8030612,39.4041297 45.4349463,40.8236747 50.0450427,41.4576604 C53.1357595,41.8825037 55.269012,39.4850175 54.5156622,36.4586466 L47.6702925,9.08285179 C47.4087552,8.04078332 45.9953314,7.60865279 45.5292426,8.42846193 L33.2795454,29.9519127 C31.9263139,32.3289948 33.4003671,35.8326768 36.3763835,37.2689823" id="path46" fill="#000000" transform="translate(43.720796, 24.753235) scale(-1, 1) rotate(-180.000000) translate(-43.720796, -24.753235) "></path>
            <path d="M46.8574062,83.1962934 L49.709759,57.2407721 C50.0224524,54.376177 47.4792224,51.3425189 44.3844247,50.9067448 C39.7744741,50.257456 35.2573622,50.3944552 31.0544013,51.311184 C28.2289383,51.9269517 27.2520173,55.0713751 28.9957695,57.8733007 L44.76999,83.2611491 C45.3700903,84.2281598 46.7480255,84.1851652 46.8574062,83.1962934" id="path48" fill="#000000" transform="translate(38.931106, 67.233448) scale(-1, 1) rotate(-180.000000) translate(-38.931106, -67.233448) "></path>
            <path d="M16.854943,24.3545678 C14.0223386,24.9688781 13.0206412,28.114759 14.7597296,30.9349024 C17.2987331,35.0536234 20.4905961,38.8845002 24.1940928,42.2307789 C24.2284884,42.2621138 24.2629568,42.29272 24.2974252,42.324055 C26.8097576,44.5816271 30.3524261,44.4613884 31.7068965,42.0821202 L43.9506181,20.567414 C44.4166341,19.7483337 43.4271063,18.5707234 42.4517156,18.7835094 L16.854943,24.3545678" id="path50" fill="#000000" transform="translate(28.984956, 31.351397) scale(-1, 1) rotate(-180.000000) translate(-28.984956, -31.351397) "></path>
            <path d="M50.5399888,79.8748831 L70.7097706,65.4666468 C72.9374653,63.875124 72.6904295,60.3532239 70.1763482,58.1036677 C70.1603165,58.0890936 70.1442849,58.0745191 70.1282527,58.0599445 C66.3840936,54.7173094 62.2041601,51.9387032 57.8034246,49.8450929 C54.8055466,48.4182607 51.7710871,49.7416148 51.4571548,52.6156833 L48.6029074,78.577034 C48.4935266,79.5666349 49.7721374,80.4236087 50.5399888,79.8748831" id="path52" fill="#000000" transform="translate(60.414788, 64.656743) scale(-1, 1) rotate(-180.000000) translate(-60.414788, -64.656743) "></path>
            <path d="M15.4623606,53.7448778 C14.0973238,55.2540552 12.9116976,56.8951311 11.9124778,58.6557166 C10.5679909,61.024783 12.0840183,64.5131616 15.0633139,65.9458235 L42.0575514,78.900994 C43.085847,79.393608 43.9180444,78.4710495 43.3180898,77.5040393 L27.5452539,52.1125468 C25.8027405,49.3120788 22.1643184,48.1745481 19.9440567,49.7565975 C18.3103411,50.9203621 16.8126044,52.2524609 15.4623606,53.7448778" id="path54" fill="#000000" transform="translate(27.469235, 64.037900) scale(-1, 1) rotate(-180.000000) translate(-27.469235, -64.037900) "></path>
            <path d="M8.25918979,43.2422513 C7.78843718,47.5052587 8.12860332,51.9978127 9.26307335,56.4991115 C10.0238562,59.5203809 13.3189059,61.7218417 16.143203,61.108989 L41.7340729,55.5415744 C42.7094636,55.3280595 42.6066413,53.9580674 41.5784185,53.4654532 L14.5874603,40.5088255 C11.6083833,39.0754348 8.57516243,40.3761986 8.25918979,43.2422513" id="path56" fill="#000000" transform="translate(25.232272, 50.566999) scale(-1, 1) rotate(-180.000000) translate(-25.232272, -50.566999) "></path>
        </g>
    </g>
</svg>