<svg width="293px" height="140px" viewBox="0 0 293 140" version="1.1" xmlns="http://www.w3.org/2000/svg" xmlns:xlink="http://www.w3.org/1999/xlink">
    <g id="Page-1" stroke="none" stroke-width="1" fill="none" fill-rule="evenodd">
        <g id="Shraga" transform="translate(0.065633, 0.000000)" fill="#000" fill-rule="nonzero">
            <path d="M29.3,94.8 C20.4333333,94.8 13.3333333,93.1166667 8,89.75 C2.66666667,86.3833333 -2.84217094e-14,81.2333333 -2.84217094e-14,74.3 C-2.84217094e-14,70.6333333 0.633333333,67.8333333 1.9,65.9 C3.16666667,63.9666667 5.03333333,63 7.5,63 C9.3,63 10.7666667,63.4666667 11.9,64.4 C13.0333333,65.3333333 13.6,66.5333333 13.6,68 C13.6,69.3333333 13.5,70.5 13.3,71.5 C13.3,71.7666667 13.25,72.2333333 13.15,72.9 C13.05,73.5666667 13,74.2666667 13,75 C13,78 14.5166667,80.2333333 17.55,81.7 C20.5833333,83.1666667 24.8333333,83.9 30.3,83.9 C35.9666667,83.9 40.4,82.8833333 43.6,80.85 C46.8,78.8166667 48.4,75.9666667 48.4,72.3 C48.4,70.0333333 47.6666667,68.0833333 46.2,66.45 C44.7333333,64.8166667 42.9,63.45 40.7,62.35 C38.5,61.25 35.4,59.9 31.4,58.3 C26.2666667,56.3 22.0833333,54.4 18.85,52.6 C15.6166667,50.8 12.85,48.35 10.55,45.25 C8.25,42.15 7.1,38.3 7.1,33.7 C7.1,28.9 8.38333333,24.6333333 10.95,20.9 C13.5166667,17.1666667 17.2166667,14.2666667 22.05,12.2 C26.8833333,10.1333333 32.5666667,9.1 39.1,9.1 C43.9666667,9.1 48.4333333,9.81666667 52.5,11.25 C56.5666667,12.6833333 59.8166667,14.8666667 62.25,17.8 C64.6833333,20.7333333 65.9,24.3333333 65.9,28.6 C65.9,32.8 65.2666667,35.9666667 64,38.1 C62.7333333,40.2333333 60.8666667,41.3 58.4,41.3 C56.6666667,41.3 55.2166667,40.7666667 54.05,39.7 C52.8833333,38.6333333 52.3,37.3666667 52.3,35.9 C52.3,34.6333333 52.4,33.4666667 52.6,32.4 C52.8,30.4 52.9,29.1333333 52.9,28.6 C52.9,25.8 51.5333333,23.6666667 48.8,22.2 C46.0666667,20.7333333 42.6666667,20 38.6,20 C32.8666667,20 28.4833333,21.05 25.45,23.15 C22.4166667,25.25 20.9,28.2 20.9,32 C20.9,34.5333333 21.6833333,36.7 23.25,38.5 C24.8166667,40.3 26.7666667,41.8 29.1,43 C31.4333333,44.2 34.7,45.6333333 38.9,47.3 C43.9666667,49.3666667 48.0333333,51.2333333 51.1,52.9 C54.1666667,54.5666667 56.7833333,56.8333333 58.95,59.7 C61.1166667,62.5666667 62.2,66.1 62.2,70.3 C62.2,78.1666667 59.2166667,84.2166667 53.25,88.45 C47.2833333,92.6833333 39.3,94.8 29.3,94.8 Z" id="Path"></path>
            <path d="M124.028122,71.7 C124.894789,71.7 125.578122,72.1 126.078122,72.9 C126.578122,73.7 126.828122,74.8 126.828122,76.2 C126.828122,78.8666667 126.194789,80.9333333 124.928122,82.4 C121.861456,85.9333333 118.711456,88.8333333 115.478122,91.1 C112.244789,93.3666667 108.561456,94.5 104.428122,94.5 C101.028122,94.5 98.4614556,93.5166667 96.7281222,91.55 C94.9947889,89.5833333 94.1281222,86.7333333 94.1281222,83 C94.1281222,81.1333333 94.5947889,77.8 95.5281222,73 C96.3947889,68.8 96.8281222,65.9 96.8281222,64.3 C96.8281222,63.2333333 96.4614556,62.7 95.7281222,62.7 C94.8614556,62.7 93.6281222,63.8166667 92.0281222,66.05 C90.4281222,68.2833333 88.8281222,71.2333333 87.2281222,74.9 C85.6281222,78.5666667 84.3281222,82.4333333 83.3281222,86.5 C82.0614556,91.8333333 78.9281222,94.5 73.9281222,94.5 C71.9281222,94.5 70.6114556,93.7833333 69.9781222,92.35 C69.3447889,90.9166667 69.0281222,88.3333333 69.0281222,84.6 C69.0281222,82.4666667 69.0614556,80.7666667 69.1281222,79.5 L69.2281222,71.5 C69.2281222,61.2333333 70.2781222,50.5333333 72.3781222,39.4 C74.4781222,28.2666667 77.5781222,18.9166667 81.6781222,11.35 C85.7781222,3.78333333 90.6947889,0 96.4281222,0 C99.4947889,0 101.978122,1.31666667 103.878122,3.95 C105.778122,6.58333333 106.728122,10 106.728122,14.2 C106.728122,20.9333333 104.761456,27.9166667 100.828122,35.15 C96.8947889,42.3833333 90.4947889,50.8333333 81.6281222,60.5 C81.4281222,63.9666667 81.3281222,67.5333333 81.3281222,71.2 C83.5281222,65.5333333 85.9781222,60.9166667 88.6781222,57.35 C91.3781222,53.7833333 94.0447889,51.2333333 96.6781222,49.7 C99.3114556,48.1666667 101.728122,47.4 103.928122,47.4 C108.261456,47.4 110.428122,49.5666667 110.428122,53.9 C110.428122,56.5 109.694789,61.2 108.228122,68 C106.961456,73.8 106.328122,77.6333333 106.328122,79.5 C106.328122,82.1666667 107.294789,83.5 109.228122,83.5 C110.561456,83.5 112.144789,82.6833333 113.978122,81.05 C115.811456,79.4166667 118.261456,76.7666667 121.328122,73.1 C122.128122,72.1666667 123.028122,71.7 124.028122,71.7 Z M94.3281222,9.9 C93.1281222,9.9 91.7947889,11.6166667 90.3281222,15.05 C88.8614556,18.4833333 87.4447889,23.1166667 86.0781222,28.95 C84.7114556,34.7833333 83.5947889,41.1333333 82.7281222,48 C86.8614556,43.1333333 90.2781222,37.8333333 92.9781222,32.1 C95.6781222,26.3666667 97.0281222,21.1666667 97.0281222,16.5 C97.0281222,14.3666667 96.7947889,12.7333333 96.3281222,11.6 C95.8614556,10.4666667 95.1947889,9.9 94.3281222,9.9 Z" id="Shape"></path>
            <path d="M124.656244,94.5 C122.122911,94.5 120.339578,93.1666667 119.306244,90.5 C118.272911,87.8333333 117.756244,83.5666667 117.756244,77.7 C117.756244,69.0333333 118.989578,60.8 121.456244,53 C122.056244,51.0666667 123.039578,49.65 124.406244,48.75 C125.772911,47.85 127.689578,47.4 130.156244,47.4 C131.489578,47.4 132.422911,47.5666667 132.956244,47.9 C133.489578,48.2333333 133.756244,48.8666667 133.756244,49.8 C133.756244,50.8666667 133.256244,53.2666667 132.256244,57 C131.589578,59.6666667 131.056244,62 130.656244,64 C130.256244,66 129.922911,68.4666667 129.656244,71.4 C131.856244,65.6666667 134.322911,61 137.056244,57.4 C139.789578,53.8 142.472911,51.2333333 145.106244,49.7 C147.739578,48.1666667 150.156244,47.4 152.356244,47.4 C156.689578,47.4 158.856244,49.5666667 158.856244,53.9 C158.856244,54.7666667 158.556244,56.8666667 157.956244,60.2 C157.422911,62.8666667 157.156244,64.5333333 157.156244,65.2 C157.156244,67.5333333 157.989578,68.7 159.656244,68.7 C161.522911,68.7 163.922911,67.2333333 166.856244,64.3 C167.722911,63.4333333 168.622911,63 169.556244,63 C170.422911,63 171.106244,63.3833333 171.606244,64.15 C172.106244,64.9166667 172.356244,65.9333333 172.356244,67.2 C172.356244,69.6666667 171.689578,71.6 170.356244,73 C168.489578,74.9333333 166.306244,76.5833333 163.806244,77.95 C161.306244,79.3166667 158.656244,80 155.856244,80 C152.322911,80 149.639578,79.1 147.806244,77.3 C145.972911,75.5 145.056244,73.0666667 145.056244,70 C145.056244,69 145.156244,68 145.356244,67 C145.489578,65.6666667 145.556244,64.7666667 145.556244,64.3 C145.556244,63.2333333 145.189578,62.7 144.456244,62.7 C143.456244,62.7 142.139578,63.8166667 140.506244,66.05 C138.872911,68.2833333 137.256244,71.2333333 135.656244,74.9 C134.056244,78.5666667 132.756244,82.4333333 131.756244,86.5 C131.022911,89.6333333 130.172911,91.75 129.206244,92.85 C128.239578,93.95 126.722911,94.5 124.656244,94.5 Z" id="Path"></path>
            <path d="M174.184367,94.5 C170.051033,94.5 166.751033,93 164.284367,90 C161.8177,87 160.584367,83.0666667 160.584367,78.2 C160.584367,72.8666667 161.8177,67.8166667 164.284367,63.05 C166.751033,58.2833333 170.034367,54.45 174.134367,51.55 C178.234367,48.65 182.584367,47.2 187.184367,47.2 C188.651033,47.2 189.634367,47.4833333 190.134367,48.05 C190.634367,48.6166667 191.051033,49.6333333 191.384367,51.1 C192.784367,50.8333333 194.251033,50.7 195.784367,50.7 C199.051033,50.7 200.684367,51.8666667 200.684367,54.2 C200.684367,55.6 200.184367,58.9333333 199.184367,64.2 C197.651033,71.8666667 196.884367,77.2 196.884367,80.2 C196.884367,81.2 197.134367,82 197.634367,82.6 C198.134367,83.2 198.784367,83.5 199.584367,83.5 C200.851033,83.5 202.384367,82.6833333 204.184367,81.05 C205.984367,79.4166667 208.4177,76.7666667 211.484367,73.1 C212.284367,72.1666667 213.184367,71.7 214.184367,71.7 C215.051033,71.7 215.734367,72.1 216.234367,72.9 C216.734367,73.7 216.984367,74.8 216.984367,76.2 C216.984367,78.8666667 216.351033,80.9333333 215.084367,82.4 C212.351033,85.8 209.451033,88.6666667 206.384367,91 C203.3177,93.3333333 200.351033,94.5 197.484367,94.5 C195.284367,94.5 193.2677,93.75 191.434367,92.25 C189.601033,90.75 188.2177,88.7 187.284367,86.1 C183.8177,91.7 179.451033,94.5 174.184367,94.5 Z M177.784367,84.4 C179.251033,84.4 180.651033,83.5333333 181.984367,81.8 C183.3177,80.0666667 184.284367,77.7666667 184.884367,74.9 L188.584367,56.5 C185.784367,56.5666667 183.201033,57.6166667 180.834367,59.65 C178.4677,61.6833333 176.584367,64.3666667 175.184367,67.7 C173.784367,71.0333333 173.084367,74.5666667 173.084367,78.3 C173.084367,80.3666667 173.501033,81.9 174.334367,82.9 C175.1677,83.9 176.3177,84.4 177.784367,84.4 Z" id="Shape"></path>
            <path d="M258.912489,71.9 C259.779156,71.9 260.462489,72.3166667 260.962489,73.15 C261.462489,73.9833333 261.712489,75.0333333 261.712489,76.3 C261.712489,77.8333333 261.479156,79.0333333 261.012489,79.9 C260.545822,80.7666667 259.812489,81.5333333 258.812489,82.2 C253.079156,86.0666667 248.879156,88.9333333 246.212489,90.8 L239.812489,95.1 C237.279156,108.9 233.962489,119.75 229.862489,127.65 C225.762489,135.55 220.545822,139.5 214.212489,139.5 C210.812489,139.5 208.045822,138.45 205.912489,136.35 C203.779156,134.25 202.712489,131.5 202.712489,128.1 C202.712489,123.366667 204.579156,118.283333 208.312489,112.85 C212.045822,107.416667 219.045822,100.733333 229.312489,92.8 L229.912489,88.9 C228.779156,90.7 227.295822,92.0833333 225.462489,93.05 C223.629156,94.0166667 221.812489,94.5 220.012489,94.5 C215.879156,94.5 212.579156,93 210.112489,90 C207.645822,87 206.412489,83.0666667 206.412489,78.2 C206.412489,72.8666667 207.645822,67.8166667 210.112489,63.05 C212.579156,58.2833333 215.862489,54.45 219.962489,51.55 C224.062489,48.65 228.412489,47.2 233.012489,47.2 C234.479156,47.2 235.462489,47.4833333 235.962489,48.05 C236.462489,48.6166667 236.879156,49.6333333 237.212489,51.1 C238.479156,50.8333333 239.945822,50.7 241.612489,50.7 C243.279156,50.7 244.462489,50.95 245.162489,51.45 C245.862489,51.95 246.212489,52.9333333 246.212489,54.4 C246.212489,55.2 246.179156,55.8333333 246.112489,56.3 C245.845822,58.3666667 245.012489,63.6 243.612489,72 C243.345822,73.6 243.062489,75.35 242.762489,77.25 C242.462489,79.15 242.145822,81.1666667 241.812489,83.3 C246.945822,79.3 251.879156,75.7666667 256.612489,72.7 C257.479156,72.1666667 258.245822,71.9 258.912489,71.9 Z M223.612489,84.4 C225.145822,84.4 226.612489,83.4666667 228.012489,81.6 C229.412489,79.7333333 230.412489,77.0666667 231.012489,73.6 L234.212489,56.5 C231.479156,56.5666667 228.945822,57.6166667 226.612489,59.65 C224.279156,61.6833333 222.412489,64.3666667 221.012489,67.7 C219.612489,71.0333333 218.912489,74.5666667 218.912489,78.3 C218.912489,80.3666667 219.329156,81.9 220.162489,82.9 C220.995822,83.9 222.145822,84.4 223.612489,84.4 Z M215.312489,129.8 C216.979156,129.8 218.862489,127.8 220.962489,123.8 C223.062489,119.8 225.079156,113.433333 227.012489,104.7 C221.879156,109.1 218.179156,113.066667 215.912489,116.6 C213.645822,120.133333 212.512489,123.233333 212.512489,125.9 C212.512489,127.033333 212.729156,127.966667 213.162489,128.7 C213.595822,129.433333 214.312489,129.8 215.312489,129.8 Z" id="Shape"></path>
            <path d="M264.940611,94.5 C261.140611,94.5 258.057278,93 255.690611,90 C253.323944,87 252.140611,83.0666667 252.140611,78.2 C252.140611,72.8666667 253.373944,67.8166667 255.840611,63.05 C258.307278,58.2833333 261.590611,54.45 265.690611,51.55 C269.790611,48.65 274.140611,47.2 278.740611,47.2 C280.207278,47.2 281.190611,47.4833333 281.690611,48.05 C282.190611,48.6166667 282.607278,49.6333333 282.940611,51.1 C284.207278,50.8333333 285.607278,50.7 287.140611,50.7 C288.740611,50.7 289.973944,51.1 290.840611,51.9 C291.707278,52.7 292.140611,53.8333333 292.140611,55.3 C292.140611,56.8333333 291.807278,59.5 291.140611,63.3 C290.407278,67.3666667 289.840611,71.25 289.440611,74.95 C289.040611,78.65 288.840611,82.8 288.840611,87.4 C288.840611,89.9333333 288.323944,91.75 287.290611,92.85 C286.257278,93.95 284.573944,94.5 282.240611,94.5 C279.973944,94.5 278.290611,93.95 277.190611,92.85 C276.090611,91.75 275.540611,89.9666667 275.540611,87.5 L275.640611,85.9 C273.573944,91.6333333 270.007278,94.5 264.940611,94.5 Z M268.840611,84.4 C270.707278,84.4 272.407278,83.1 273.940611,80.5 C275.473944,77.9 276.840611,73.2666667 278.040611,66.6 L279.940611,56.5 C277.207278,56.5666667 274.673944,57.6166667 272.340611,59.65 C270.007278,61.6833333 268.140611,64.3666667 266.740611,67.7 C265.340611,71.0333333 264.640611,74.5666667 264.640611,78.3 C264.640611,80.3 265.023944,81.8166667 265.790611,82.85 C266.557278,83.8833333 267.573944,84.4 268.840611,84.4 Z" id="Shape"></path>
        </g>
    </g>
</svg>