<?xml version="1.0" standalone="no"?>
<!DOCTYPE svg PUBLIC "-//W3C//DTD SVG 20010904//EN"
 "http://www.w3.org/TR/2001/REC-SVG-20010904/DTD/svg10.dtd">
<svg version="1.0" xmlns="http://www.w3.org/2000/svg"
 width="300.000000pt" height="276.000000pt" viewBox="0 0 300.000000 276.000000"
 preserveAspectRatio="xMidYMid meet">
<g transform="translate(0.000000,276.000000) scale(0.100000,-0.100000)"
fill="#000000" stroke="none">
<path d="M1390 2698 c0 -7 19 -30 43 -51 l42 -39 -36 21 c-37 21 -138 51 -174
51 -12 0 -30 -6 -40 -14 -17 -12 -14 -15 36 -31 68 -22 179 -75 179 -86 0 -4
-19 3 -42 16 -24 14 -72 35 -108 47 -98 32 -240 29 -240 -6 0 -10 21 -16 78
-21 42 -4 84 -11 92 -16 9 -5 2 -6 -20 -4 -145 19 -254 25 -263 16 -12 -12 -7
-14 71 -31 84 -19 53 -23 -36 -5 -59 12 -86 14 -99 6 -17 -10 -16 -11 5 -17
18 -5 20 -9 10 -15 -7 -5 -22 -9 -34 -9 -11 0 -29 -6 -40 -14 -18 -14 -17 -15
16 -30 l35 -15 -32 -11 c-58 -21 -38 -49 35 -51 l37 -1 -47 -15 c-52 -15 -59
-26 -29 -43 25 -13 72 -13 107 0 15 6 29 9 31 6 2 -2 -22 -13 -53 -23 -66 -22
-78 -38 -39 -53 37 -14 80 -12 122 5 45 19 30 -3 -22 -31 -44 -23 -40 -36 14
-49 36 -8 41 -12 36 -30 -21 -70 -35 -160 -35 -221 0 -68 -1 -72 -25 -78 -42
-11 -91 -69 -105 -124 -20 -86 22 -184 93 -218 l32 -15 1 -200 c0 -157 -3
-199 -13 -199 -20 0 -16 -35 6 -54 20 -18 26 -51 36 -181 8 -110 24 -172 53
-208 45 -56 87 -96 100 -97 6 0 12 -4 12 -9 0 -5 17 -13 38 -18 26 -6 38 -15
40 -30 3 -20 0 -21 -80 -16 -140 9 -332 -33 -478 -104 -60 -29 -94 -55 -169
-132 -85 -87 -191 -221 -191 -243 0 -4 9 -8 19 -8 12 0 29 16 44 43 14 23 37
53 52 67 22 20 21 15 -9 -24 -71 -93 -81 -86 120 -86 l176 0 -7 43 c-4 23 -18
69 -32 102 -36 89 -37 97 -3 30 16 -33 35 -86 41 -117 l12 -58 254 0 254 0 -7
23 c-4 12 -9 28 -12 36 -3 8 -1 12 5 8 6 -4 13 -20 16 -37 5 -22 12 -30 27
-30 14 0 19 4 14 13 -6 10 -4 10 7 0 10 -10 120 -13 481 -13 l468 0 -5 33 -5
32 12 -32 11 -33 298 0 298 0 -29 66 c-56 123 -129 212 -208 253 -13 7 -21 15
-18 18 9 10 72 -36 125 -92 35 -37 67 -87 97 -150 26 -55 51 -95 60 -95 19 0
19 1 -17 73 -80 157 -119 200 -301 330 -223 159 -272 176 -520 184 l-168 6 0
96 c1 105 13 262 31 383 11 77 12 78 41 78 53 0 99 59 137 176 28 82 33 109
27 146 -8 52 -44 98 -76 98 -19 0 -21 4 -15 48 3 26 11 75 17 108 8 43 8 73 1
103 -7 26 -7 39 -1 35 12 -8 2 46 -17 91 -7 16 -21 50 -30 75 -30 81 -49 113
-97 165 -26 29 -45 55 -42 57 9 10 -17 140 -35 177 -21 39 -67 88 -76 79 -4
-3 3 -21 14 -39 12 -19 21 -41 21 -49 0 -8 -14 10 -31 42 -39 71 -116 158
-162 183 -51 27 -57 11 -14 -33 20 -21 37 -41 37 -44 0 -4 -22 15 -50 43 -65
65 -180 121 -180 87z m-98 -411 c-11 -13 -109 -65 -185 -97 -29 -12 -47 -25
-44 -33 4 -13 65 -16 112 -4 23 6 26 5 13 -3 -10 -6 -18 -16 -18 -22 0 -18 54
-1 167 52 60 27 97 41 83 30 -14 -10 -42 -27 -62 -36 -53 -24 -48 -37 11 -32
42 4 50 2 54 -14 3 -11 14 -18 30 -18 38 0 141 34 179 60 l33 22 -25 -24 c-14
-12 -37 -30 -50 -40 -23 -15 -24 -17 -6 -24 25 -10 87 23 154 82 l52 45 41
-38 c40 -38 41 -39 30 -79 -6 -23 -22 -58 -36 -78 -14 -20 -25 -43 -25 -49 0
-7 -5 -18 -10 -23 -8 -8 -4 -32 11 -80 37 -117 39 -120 106 -156 82 -43 85
-69 3 -28 -33 17 -60 26 -60 20 0 -5 27 -23 60 -40 33 -17 60 -33 60 -35 0 -3
-27 8 -60 25 -33 17 -60 26 -60 20 0 -6 29 -25 65 -42 36 -18 65 -35 65 -39 0
-4 -29 9 -65 28 -36 19 -65 29 -65 24 0 -6 29 -26 65 -43 36 -18 65 -36 65
-41 0 -4 -29 8 -65 28 -36 20 -65 32 -65 26 0 -6 23 -22 51 -37 28 -14 49 -28
46 -30 -3 -3 -24 4 -47 16 -23 12 -44 19 -47 16 -3 -2 14 -14 37 -26 23 -12
40 -24 37 -26 -2 -3 -70 25 -150 62 -140 65 -145 68 -156 105 -32 106 -149
165 -246 124 -36 -14 -95 -71 -95 -90 0 -21 -26 -46 -41 -40 -13 5 -14 16 -7
68 5 34 13 77 18 97 6 21 6 38 0 44 -13 13 -28 -31 -42 -120 l-11 -72 -20 40
c-22 44 -88 98 -121 98 -44 0 -49 12 -42 97 6 68 38 219 48 228 2 1 36 17 76
34 40 17 92 42 115 56 48 28 54 30 39 12z m-204 -477 c118 -72 84 -262 -50
-277 -140 -15 -207 203 -85 277 41 25 93 25 135 0z m394 0 c49 -14 104 -76
113 -129 9 -56 -8 -103 -56 -145 -35 -32 -45 -36 -94 -36 -49 0 -59 4 -95 36
-88 79 -71 217 33 264 49 23 51 23 99 10z m-222 -165 c0 -34 26 -94 53 -124
27 -29 93 -61 127 -61 79 0 152 54 180 133 l15 44 122 -57 122 -58 3 -59 3
-58 14 48 c7 26 18 47 23 47 6 0 23 11 40 25 35 30 77 32 109 6 21 -17 24 -27
24 -88 -1 -79 -38 -192 -78 -235 -36 -40 -87 -39 -120 3 -24 31 -52 33 -40 4
3 -10 -1 -15 -12 -15 -11 0 -15 -5 -11 -15 4 -10 -1 -15 -15 -15 -13 0 -19 -6
-17 -17 2 -13 -3 -17 -15 -15 -15 3 -17 -1 -12 -19 5 -14 4 -19 -4 -15 -17 11
-13 -15 6 -36 9 -10 11 -18 5 -18 -6 0 -16 9 -22 20 -14 26 -30 26 -30 -1 0
-17 -3 -19 -14 -10 -18 15 -30 -1 -21 -28 5 -16 2 -18 -15 -14 -11 3 -20 0
-20 -6 0 -6 -7 -11 -16 -11 -10 0 -14 -6 -10 -15 3 -10 -1 -15 -11 -15 -14 0
-14 -3 3 -21 19 -22 19 -22 -5 -14 -21 6 -23 5 -18 -15 5 -21 5 -21 -14 -4
-10 9 -19 12 -19 6 0 -6 -7 -12 -16 -14 -14 -3 -13 -7 6 -30 22 -29 13 -40
-10 -13 -7 8 -16 15 -21 15 -5 0 -9 -7 -9 -15 0 -8 -5 -15 -11 -15 -6 0 -9 -7
-6 -14 4 -10 1 -13 -9 -9 -9 3 -14 -1 -14 -13 -1 -18 -2 -18 -16 1 -11 14 -18
16 -21 8 -7 -19 -20 -16 -26 7 -7 27 -25 25 -30 -2 -3 -17 -5 -15 -6 9 -1 36
-19 53 -32 32 -6 -10 -9 -6 -9 14 0 15 -4 27 -10 27 -5 0 -10 -12 -11 -27 0
-25 -1 -26 -9 -8 -5 11 -9 35 -9 53 -1 36 -17 48 -56 38 -22 -6 -25 -12 -26
-59 -1 -28 -4 -42 -6 -29 -6 31 -23 17 -23 -20 0 -26 -2 -29 -16 -18 -13 11
-16 10 -21 -9 -4 -17 -8 -19 -15 -9 -7 10 -11 9 -23 -6 -15 -19 -15 -19 -15 4
0 23 0 23 -21 4 l-21 -19 7 33 c5 23 3 32 -7 32 -7 0 -13 10 -14 23 0 12 -4
46 -9 75 l-8 52 37 0 c44 0 70 12 111 50 47 44 111 44 199 0 54 -27 85 -35
137 -38 62 -4 70 -2 94 22 29 29 29 52 -1 49 -32 -3 -78 26 -112 71 -18 24
-52 54 -76 67 -42 22 -44 24 -42 67 0 28 -4 47 -11 49 -9 3 -11 -4 -7 -25 7
-33 -5 -45 -46 -49 -14 -1 -44 -5 -67 -9 -34 -5 -45 -2 -62 15 -25 25 -26 44
-6 101 8 24 23 96 32 162 14 102 19 118 35 118 13 0 18 -7 18 -25z m-83 -106
c-4 -27 -16 -88 -28 -134 -19 -77 -20 -86 -6 -115 15 -29 15 -31 -12 -44 -15
-8 -39 -37 -54 -64 -32 -60 -54 -81 -62 -60 -3 7 -4 94 -3 193 l3 180 37 6
c43 7 80 29 105 64 10 13 20 25 22 25 2 0 1 -23 -2 -51z m-1 -341 c-12 -40
-17 -50 -22 -46 -5 6 13 58 20 58 3 0 4 -6 2 -12z m113 -50 c1 -26 -46 -35
-67 -13 -16 16 -16 16 4 5 34 -21 57 -6 50 32 -5 25 -4 28 3 13 5 -11 10 -28
10 -37z m134 6 c11 -14 17 -28 14 -30 -3 -3 -15 9 -27 25 -12 17 -18 31 -13
31 4 0 16 -12 26 -26z m481 -10 c-1 -10 -8 -75 -18 -142 -15 -118 -22 -403
-10 -447 3 -11 18 -28 34 -37 102 -58 91 -232 -20 -332 -116 -104 -339 -153
-463 -101 -44 18 -113 78 -131 114 -18 35 -28 103 -17 119 6 11 10 9 14 -7 3
-12 10 -21 17 -21 12 0 7 74 -11 155 -13 63 -13 65 21 55 37 -11 131 -6 185 9
22 6 42 9 45 8 3 -1 19 8 37 21 17 12 35 22 41 22 12 0 122 116 122 129 0 6 8
19 18 29 23 23 77 174 97 267 8 39 15 96 15 128 0 43 3 57 13 54 6 -2 12 -13
11 -23z m-803 -17 c-10 -9 -11 -8 -5 6 3 10 9 15 12 12 3 -3 0 -11 -7 -18z
m724 -17 c3 -5 4 -10 1 -10 -3 0 -8 5 -11 10 -3 6 -4 10 -1 10 3 0 8 -4 11
-10z m-259 -48 c-10 -2 -22 0 -28 6 -6 6 0 7 19 4 21 -5 23 -7 9 -10z m-529
-19 c-4 -3 -10 -3 -14 0 -3 4 0 7 7 7 7 0 10 -3 7 -7z m743 -54 c0 -6 -4 -7
-10 -4 -5 3 -10 11 -10 16 0 6 5 7 10 4 6 -3 10 -11 10 -16z m35 11 c3 -5 4
-10 1 -10 -3 0 -8 5 -11 10 -3 6 -4 10 -1 10 3 0 8 -4 11 -10z m-85 -20 c0 -5
-2 -10 -4 -10 -3 0 -8 5 -11 10 -3 6 -1 10 4 10 6 0 11 -4 11 -10z m-30 -55
c11 -13 10 -14 -4 -9 -9 3 -16 10 -16 15 0 13 6 11 20 -6z m65 5 c3 -5 1 -10
-4 -10 -6 0 -11 5 -11 10 0 6 2 10 4 10 3 0 8 -4 11 -10z m13 -65 c-3 -3 -9 2
-12 12 -6 14 -5 15 5 6 7 -7 10 -15 7 -18z m-43 5 c3 -5 1 -10 -4 -10 -6 0
-11 5 -11 10 0 6 2 10 4 10 3 0 8 -4 11 -10z m-100 -20 c3 -5 4 -10 1 -10 -3
0 -8 5 -11 10 -3 6 -4 10 -1 10 3 0 8 -4 11 -10z m60 0 c3 -6 -1 -7 -9 -4 -18
7 -21 14 -7 14 6 0 13 -4 16 -10z m-438 -62 c-3 -7 -5 -2 -5 12 0 14 2 19 5
13 2 -7 2 -19 0 -25z m340 -10 c-3 -8 -6 -5 -6 6 -1 11 2 17 5 13 3 -3 4 -12
1 -19z m150 5 c-4 -3 -7 0 -7 7 0 7 3 10 7 7 3 -4 3 -10 0 -14z m-47 -14 c0
-6 -4 -7 -10 -4 -5 3 -10 11 -10 16 0 6 5 7 10 4 6 -3 10 -11 10 -16z m-412
-14 c-3 -3 -9 2 -12 12 -6 14 -5 15 5 6 7 -7 10 -15 7 -18z m29 -7 c-3 -7 -5
-2 -5 12 0 14 2 19 5 13 2 -7 2 -19 0 -25z m138 22 c3 -5 4 -10 1 -10 -3 0 -8
5 -11 10 -3 6 -4 10 -1 10 3 0 8 -4 11 -10z m94 -20 c11 -24 11 -24 -3 -6 -9
11 -16 24 -16 30 0 12 5 7 19 -24z m-402 -2 c-3 -8 -6 -5 -6 6 -1 11 2 17 5
13 3 -3 4 -12 1 -19z m370 0 c-3 -8 -6 -5 -6 6 -1 11 2 17 5 13 3 -3 4 -12 1
-19z m-137 -28 c0 -13 -1 -13 -10 0 -5 8 -10 22 -10 30 0 13 1 13 10 0 5 -8
10 -22 10 -30z m-303 13 c-4 -3 -7 0 -7 7 0 7 3 10 7 7 3 -4 3 -10 0 -14z
m110 0 c-4 -3 -7 0 -7 7 0 7 3 10 7 7 3 -4 3 -10 0 -14z m24 -26 c-10 -9 -11
-8 -5 6 3 10 9 15 12 12 3 -3 0 -11 -7 -18z m499 2 c0 -6 -4 -7 -10 -4 -5 3
-10 11 -10 16 0 6 5 7 10 4 6 -3 10 -11 10 -16z m-280 -9 c6 -11 8 -20 6 -20
-3 0 -10 9 -16 20 -6 11 -8 20 -6 20 3 0 10 -9 16 -20z m59 -25 c0 -5 -4 -3
-9 5 -5 8 -9 22 -9 30 0 16 17 -16 18 -35z m128 23 c-3 -8 -6 -5 -6 6 -1 11 2
17 5 13 3 -3 4 -12 1 -19z m40 -10 c-3 -7 -5 -2 -5 12 0 14 2 19 5 13 2 -7 2
-19 0 -25z m-410 -10 c-3 -8 -6 -5 -6 6 -1 11 2 17 5 13 3 -3 4 -12 1 -19z
m-136 -11 c-10 -9 -11 -8 -5 6 3 10 9 15 12 12 3 -3 0 -11 -7 -18z m248 -3
c17 -38 6 -42 -14 -5 -8 17 -12 31 -7 31 5 0 14 -12 21 -26z m-198 -11 c-12
-20 -14 -14 -5 12 4 9 9 14 11 11 3 -2 0 -13 -6 -23z m359 -10 c-11 -17 -11
-17 -6 0 3 10 6 24 7 30 0 9 2 9 5 0 3 -7 0 -20 -6 -30z m-300 -13 c0 -11 -4
-20 -9 -20 -5 0 -7 9 -4 20 3 11 7 20 9 20 2 0 4 -9 4 -20z m197 -12 c-3 -7
-5 -2 -5 12 0 14 2 19 5 13 2 -7 2 -19 0 -25z m169 6 c-4 -9 -9 -15 -11 -12
-3 3 -3 13 1 22 4 9 9 15 11 12 3 -3 3 -13 -1 -22z m-269 -31 c-3 -10 -5 -4
-5 12 0 17 2 24 5 18 2 -7 2 -21 0 -30z m149 11 c-4 -9 -9 -15 -11 -12 -3 3
-3 13 1 22 4 9 9 15 11 12 3 -3 3 -13 -1 -22z m741 -151 c-4 -3 -10 -3 -14 0
-3 4 0 7 7 7 7 0 10 -3 7 -7z m-60 -20 c-4 -3 -10 -3 -14 0 -3 4 0 7 7 7 7 0
10 -3 7 -7z m-1167 -78 c-8 -35 -16 -60 -18 -55 -5 15 18 120 27 120 4 0 0
-29 -9 -65z m-69 -35 c-6 -44 -9 -53 -10 -29 -1 37 9 102 15 96 2 -1 -1 -32
-5 -67z m1194 40 c9 -16 13 -30 11 -30 -3 0 -12 14 -21 30 -9 17 -13 30 -11
30 3 0 12 -13 21 -30z m-1039 -28 c-18 -16 -18 -16 -6 6 6 13 14 21 18 18 3
-4 -2 -14 -12 -24z m1422 -31 c-10 -21 -23 -67 -27 -102 -8 -61 -9 -61 -10
-18 -1 46 19 120 40 146 18 21 18 15 -3 -26z m-1382 -13 c-18 -26 -22 -17 -5
14 6 11 13 17 16 15 3 -3 -2 -16 -11 -29z m105 -11 c-1 -12 -15 -9 -19 4 -3 6
1 10 8 8 6 -3 11 -8 11 -12z m1190 -57 c-5 -25 -9 -35 -10 -24 -1 28 11 92 16
79 1 -6 -1 -30 -6 -55z m-1171 -10 c0 -5 -4 -10 -10 -10 -5 0 -10 5 -10 10 0
6 5 10 10 10 6 0 10 -4 10 -10z m1425 -20 c3 -5 1 -10 -4 -10 -6 0 -11 5 -11
10 0 6 2 10 4 10 3 0 8 -4 11 -10z m-618 -27 c-4 -3 -10 -3 -14 0 -3 4 0 7 7
7 7 0 10 -3 7 -7z m-866 -80 c-12 -20 -14 -14 -5 12 4 9 9 14 11 11 3 -2 0
-13 -6 -23z m1076 -5 c-3 -8 -6 -5 -6 6 -1 11 2 17 5 13 3 -3 4 -12 1 -19z
m-1640 -20 c-3 -7 -5 -2 -5 12 0 14 2 19 5 13 2 -7 2 -19 0 -25z m2180 -15
c-4 -3 -7 0 -7 7 0 7 3 10 7 7 3 -4 3 -10 0 -14z"/>
<path d="M1094 2091 c-46 -12 -54 -19 -54 -51 0 -42 28 -54 111 -46 115 10
153 37 112 78 -23 22 -116 33 -169 19z"/>
<path d="M1413 2008 c-22 -28 -22 -48 -2 -67 23 -21 148 -84 211 -107 57 -20
75 -18 94 11 15 23 15 27 0 50 -19 29 -125 85 -205 109 -66 19 -85 20 -98 4z"/>
<path d="M1993 1490 c-35 -21 -47 -40 -56 -87 -4 -22 -2 -33 8 -37 23 -8 19
-63 -5 -78 -11 -7 -20 -18 -20 -25 0 -18 6 -16 40 9 34 25 41 76 15 98 -34 28
-1 100 53 115 19 5 25 1 37 -27 14 -32 14 -32 15 -6 0 27 -23 58 -43 58 -7 0
-26 -9 -44 -20z"/>
<path d="M1308 1032 l-48 -24 -36 21 c-43 26 -47 26 -35 2 16 -30 64 -45 103
-32 39 14 84 46 72 52 -5 3 -30 -6 -56 -19z"/>
</g>
</svg>
